<svg xmlns="http://www.w3.org/2000/svg" width="364.607" height="192.68" viewBox="0 0 364.607 192.68">
  <g id="Group_421" data-name="Group 421" transform="translate(-739.544 -846.66)">
    <path id="image_4_Traced_" data-name="image 4 (Traced)" d="M16.217.6A21.038,21.038,0,0,0,.638,15.491,20.24,20.24,0,0,0,12.081,38.9l3.1,1.351-.01,18.31-.01,18.309-3.3,1.55a20.3,20.3,0,0,0-9.594,9.475C.755,90.968.688,91.335.688,96.589s.067,5.621,1.581,8.7a20.3,20.3,0,0,0,9.594,9.475l3.3,1.55.01,18.309.01,18.31-3.208,1.389A20.211,20.211,0,0,0,.307,175.688c1.928,11.254,12.124,18.752,23.047,16.948A19.883,19.883,0,0,0,40.277,171.43a15.023,15.023,0,0,0-1.96-7.516,20.488,20.488,0,0,0-10.277-9.889l-2.877-1.116V116.285L28.37,114.9a20.079,20.079,0,0,0,0-36.614l-3.208-1.389V58.465c0-12.685.157-18.428.5-18.428a17.451,17.451,0,0,0,3.188-1.269A20.381,20.381,0,0,0,36.392,8.33,20.9,20.9,0,0,0,16.217.6Zm41.9,5.661a4.658,4.658,0,0,0-1.9,5.876c1.445,3.458-3.788,3.192,62.65,3.192,43.015,0,60.078-.149,60.917-.531,2.877-1.311,3.415-5.771.972-8.066l-1.219-1.145-59.959-.12C61.114,5.345,59.579,5.365,58.121,6.257Zm-33.667,5.2a9.965,9.965,0,0,1,3.419,15.6A10.494,10.494,0,0,1,16.243,29.8c-8.162-3.41-7.918-15.384.379-18.7A12.475,12.475,0,0,1,24.454,11.459Zm33.36,15.279A4.969,4.969,0,0,0,56.229,32.6c1.377,3.3-.227,3.161,37.626,3.161,30.914,0,34.171-.073,35.388-.791a5.026,5.026,0,0,0,.982-7.8l-1.389-1.389h-34.9C59.661,25.78,59.01,25.8,57.814,26.738Zm.307,55.556a4.658,4.658,0,0,0-1.9,5.876c1.445,3.458-3.788,3.192,62.65,3.192,43.015,0,60.078-.149,60.917-.531,2.877-1.311,3.415-5.771.972-8.066l-1.219-1.145-59.959-.12C61.114,81.382,59.579,81.4,58.121,82.294ZM24.588,87.516a9.985,9.985,0,0,1-5.37,18.954c-10.348-.858-12.307-15.455-2.6-19.331A12.176,12.176,0,0,1,24.588,87.516Zm33.227,15.259a4.969,4.969,0,0,0-1.585,5.861c1.377,3.3-.227,3.161,37.626,3.161,30.914,0,34.171-.073,35.388-.791a5.026,5.026,0,0,0,.982-7.8l-1.389-1.389h-34.9C59.661,101.816,59.01,101.834,57.814,102.775Zm.307,55.556a4.658,4.658,0,0,0-1.9,5.876c1.445,3.458-3.788,3.192,62.65,3.192,43.015,0,60.078-.149,60.917-.531,2.877-1.311,3.415-5.771.972-8.066l-1.219-1.145-59.959-.12C61.114,157.419,59.579,157.438,58.121,158.331Zm-33.534,5.222a9.985,9.985,0,0,1-5.37,18.954c-10.348-.858-12.307-15.455-2.6-19.331A12.176,12.176,0,0,1,24.588,163.553Zm33.227,15.259a4.969,4.969,0,0,0-1.585,5.861c1.377,3.3-.227,3.161,37.626,3.161,30.914,0,34.171-.073,35.388-.791a5.026,5.026,0,0,0,.982-7.8l-1.389-1.389h-34.9C59.661,177.853,59.01,177.87,57.814,178.811Z" transform="translate(921.848 846.437)" fill="#efefef" fill-rule="evenodd"/>
    <path id="image_4_Traced_2" data-name="image 4 (Traced)" d="M166.087.6a21.038,21.038,0,0,1,15.579,14.895A20.24,20.24,0,0,1,170.222,38.9l-3.1,1.351.01,18.31.01,18.309,3.3,1.55a20.3,20.3,0,0,1,9.594,9.475c1.515,3.077,1.581,3.443,1.581,8.7s-.067,5.621-1.581,8.7a20.3,20.3,0,0,1-9.594,9.475l-3.3,1.55-.01,18.309-.01,18.31,3.208,1.389A20.211,20.211,0,0,1,182,175.688c-1.928,11.254-12.124,18.752-23.047,16.948a19.883,19.883,0,0,1-16.923-21.206,15.023,15.023,0,0,1,1.96-7.516,20.488,20.488,0,0,1,10.277-9.889l2.877-1.116V116.285l-3.208-1.389a20.079,20.079,0,0,1,0-36.614l3.208-1.389V58.465c0-12.685-.157-18.428-.5-18.428a17.451,17.451,0,0,1-3.188-1.269A20.381,20.381,0,0,1,145.912,8.33,20.9,20.9,0,0,1,166.087.6Zm-41.9,5.661a4.658,4.658,0,0,1,1.9,5.876c-1.445,3.458,3.788,3.192-62.65,3.192-43.015,0-60.078-.149-60.917-.531C-.356,13.483-.894,9.023,1.549,6.728L2.768,5.582l59.959-.12C121.19,5.345,122.725,5.365,124.183,6.257Zm33.667,5.2a9.965,9.965,0,0,0-3.419,15.6A10.5,10.5,0,0,0,166.06,29.8c8.162-3.41,7.918-15.384-.379-18.7A12.476,12.476,0,0,0,157.85,11.459ZM124.49,26.738a4.969,4.969,0,0,1,1.585,5.861c-1.377,3.3.227,3.161-37.626,3.161-30.914,0-34.171-.073-35.388-.791a5.026,5.026,0,0,1-.982-7.8l1.389-1.389h34.9C122.642,25.78,123.293,25.8,124.49,26.738Zm-.307,55.556a4.658,4.658,0,0,1,1.9,5.876c-1.445,3.458,3.788,3.192-62.65,3.192-43.015,0-60.078-.149-60.917-.531-2.877-1.311-3.415-5.771-.972-8.066l1.219-1.145,59.959-.12C121.19,81.382,122.725,81.4,124.183,82.294Zm33.534,5.222a9.985,9.985,0,0,0,5.37,18.954c10.348-.858,12.307-15.455,2.6-19.331A12.176,12.176,0,0,0,157.716,87.516ZM124.49,102.775a4.969,4.969,0,0,1,1.585,5.861c-1.377,3.3.227,3.161-37.626,3.161-30.914,0-34.171-.073-35.388-.791a5.026,5.026,0,0,1-.982-7.8l1.389-1.389h34.9C122.642,101.816,123.293,101.834,124.49,102.775Zm-.307,55.556a4.658,4.658,0,0,1,1.9,5.876c-1.445,3.458,3.788,3.192-62.65,3.192-43.015,0-60.078-.149-60.917-.531-2.877-1.311-3.415-5.771-.972-8.066l1.219-1.145,59.959-.12C121.19,157.419,122.725,157.438,124.183,158.331Zm33.534,5.222a9.985,9.985,0,0,0,5.37,18.954c10.348-.858,12.307-15.455,2.6-19.331A12.176,12.176,0,0,0,157.716,163.553ZM124.49,178.811a4.969,4.969,0,0,1,1.585,5.861c-1.377,3.3.227,3.161-37.626,3.161-30.914,0-34.171-.073-35.388-.791a5.026,5.026,0,0,1-.982-7.8l1.389-1.389h34.9C122.642,177.853,123.293,177.87,124.49,178.811Z" transform="translate(739.544 846.437)" fill="#efefef" fill-rule="evenodd"/>
  </g>
</svg>
