<svg xmlns="http://www.w3.org/2000/svg" width="30.672" height="28.726" viewBox="0 0 30.672 28.726">
  <path id="image_9_Traced_" data-name="image 9 (Traced)" d="M7.527.371c-.435.2-.569.5-.569,1.27v.565h-2.2A13.78,13.78,0,0,0,2.2,2.3,2.923,2.923,0,0,0,.1,4.4c-.135.518-.135,21.915,0,22.433a2.923,2.923,0,0,0,2.1,2.106c.311.081,1.851.092,13.142.092,14.085,0,13.1.026,13.841-.368a3.218,3.218,0,0,0,1.154-1.176c.355-.7.336-.015.336-11.87,0-11.971.024-11.188-.368-11.924a3.218,3.218,0,0,0-1.176-1.154c-.623-.316-.815-.336-3.194-.336h-2.2l-.02-.655c-.022-.707-.074-.841-.433-1.108a1.09,1.09,0,0,0-1.032,0c-.359.268-.411.4-.433,1.108l-.02.655H8.885l-.02-.655C8.843.848,8.79.711,8.441.45A1.123,1.123,0,0,0,7.527.371ZM6.968,4.777c.022.707.074.841.433,1.108a1.09,1.09,0,0,0,1.032,0c.359-.268.411-.4.433-1.108l.02-.655H21.8l.02.655c.022.707.074.841.433,1.108a1.09,1.09,0,0,0,1.032,0c.359-.268.411-.4.433-1.11l.02-.657,2.206.017c2.121.016,2.212.022,2.371.141.407.3.41.319.43,1.827l.018,1.373H1.928V6.192c0-1.33.026-1.51.259-1.763.269-.293.346-.3,2.626-.3l2.136,0ZM28.741,17.951c-.016,8.539-.016,8.559-.139,8.724a1.712,1.712,0,0,1-.289.289l-.165.123H2.536l-.165-.123a1.712,1.712,0,0,1-.289-.289c-.123-.165-.124-.185-.139-8.724L1.927,9.392h26.83ZM20.6,12.367c-.194.081-.726.748-3.8,4.764L13.231,21.8l-.252-.261c-.139-.144-.811-.859-1.494-1.59-1.327-1.421-1.433-1.5-1.909-1.437A.96.96,0,0,0,8.823,19.8c.045.107.951,1.122,2.013,2.256a14.509,14.509,0,0,0,2.148,2.133,1.049,1.049,0,0,0,.854-.109c.085-.063,1.926-2.44,4.091-5.281,2.8-3.68,3.948-5.225,3.975-5.369a.976.976,0,0,0-.555-1.079A.9.9,0,0,0,20.6,12.367Z" transform="translate(0 -0.309)" fill="#fff"/>
</svg>
