<svg xmlns="http://www.w3.org/2000/svg" width="101.363" height="15" viewBox="0 0 101.363 15">
  <g id="Logo" transform="translate(-634.257 -400.372)">
    <path id="Path_7407" data-name="Path 7407" d="M19.3-16.124,15.387-4.582l-3.93-11.541H10.141L6.154-4.639,2.3-16.124H.851L5.353-2.77H6.822l3.93-11.389L14.663-2.77H16.15l4.5-13.354ZM27.654-2.655a6.715,6.715,0,0,0,7-6.791,6.715,6.715,0,0,0-7-6.791,6.721,6.721,0,0,0-7.02,6.791A6.721,6.721,0,0,0,27.654-2.655Zm0-1.259a5.43,5.43,0,0,1-5.628-5.532,5.43,5.43,0,0,1,5.628-5.532,5.41,5.41,0,0,1,5.589,5.532A5.41,5.41,0,0,1,27.654-3.914ZM47.188-2.77,43.926-7.348a4.139,4.139,0,0,0,3.052-4.2c0-2.862-2.06-4.578-5.456-4.578h-5V-2.77h1.412V-7h3.586a9.506,9.506,0,0,0,1.068-.057L45.643-2.77Zm-5.7-5.437H37.936v-6.7h3.548c2.671,0,4.082,1.221,4.082,3.357C45.567-9.447,44.155-8.207,41.484-8.207ZM58.615-2.77h1.679l-6.181-7.306,5.78-6.047H58.272L50.431-8.054v-8.069H49.02V-2.77h1.412V-6.28l2.728-2.766ZM62.7-3.991v-4.96H69.6v-1.2H62.7V-14.9h7.745v-1.221H61.286V-2.77h9.443V-3.991ZM83.415-2.77,80.153-7.348a4.14,4.14,0,0,0,3.052-4.2c0-2.862-2.06-4.578-5.456-4.578h-5V-2.77h1.412V-7h3.586a9.506,9.506,0,0,0,1.068-.057L81.87-2.77Zm-5.7-5.437H74.163v-6.7h3.548c2.671,0,4.082,1.221,4.082,3.357C81.793-9.447,80.382-8.207,77.711-8.207Z" transform="translate(633.406 417.276)" fill="#080808"/>
    <g id="Group_308" data-name="Group 308" transform="translate(718.152 400.372)">
      <path id="main_bckground" data-name="main bckground" d="M15.282-17.228,9.7-24.97l5.219-7.23H11.175L7.8-27.345,4.352-32.2H.416l5.262,7.358L.138-17.228H4.116l3.551-5.2,3.615,5.2Z" transform="translate(2.187 32.21)" fill="#4260b3"/>
      <path id="Path_1390" data-name="Path 1390" d="M15.282-17.228,9.7-24.97l5.219-7.23H11.175L7.8-27.345,4.352-32.2H.416l5.262,7.358L.138-17.228H4.116l3.551-5.2,3.615,5.2Z" transform="translate(-0.138 32.21)" fill="#0058fb"/>
      <path id="Path_1396" data-name="Path 1396" d="M7774.215,1297.675h2.3l-5.552-7.739h-2.312Z" transform="translate(-7759.088 -1282.676)" fill="#c8dbfd"/>
      <path id="Path_1397" data-name="Path 1397" d="M7772.17,1292.78l1.165-1.631-2.3-3.218h-2.317Z" transform="translate(-7764.505 -1287.922)" fill="#c8dbfd"/>
      <path id="Path_1398" data-name="Path 1398" d="M7760.91,1293.172h2.358l2.413-3.527-1.172-1.674Z" transform="translate(-7756.967 -1278.178)" fill="#c8dbfd" opacity="0.6"/>
      <path id="Path_1399" data-name="Path 1399" d="M7760.707,1291.377h2.36l5.248-7.251h-2.334Z" transform="translate(-7751.208 -1284.127)" fill="#c8dbfd" opacity="0.6"/>
    </g>
  </g>
</svg>
